{"title":"Vanishing On 7th Street XViD AC3 BRRip - DTRG - SAFCuk009","uid":6391127,"size":1585194876,"categoryP":"video","categoryS":"movies","magnet":"?xt=urn:btih:5df33074d2790a4cb41bcde63ea8f3a3b1c8f7ae&amp;dn=Vanishing+On+7th+Street+XViD+AC3+BRRip+-+DTRG+-+SAFCuk009&amp;tr=udp%3A%2F%2Ftracker.openbittorrent.com%3A80&amp;tr=udp%3A%2F%2Fopen.demonii.com%3A1337&amp;tr=udp%3A%2F%2Ftracker.coppersurfer.tk%3A6969&amp;tr=udp%3A%2F%2Fexodus.desync.com%3A6969","seeders":0,"leechers":0,"uploader":"SAFCukO09","files":3,"time":1305362355,"description":"Format : AVI\nFormat/Info : Audio Video Interleave\nFile size : 1.48 GiB\nDuration : 1h 31mn\nOverall bit rate : 2 317 Kbps\nWriting application : VirtualDubMod 1.5.10.2 (build 2540/release)\nWriting library : VirtualDub build 32842/release\n\nVideo\nID : 0\nFormat : MPEG-4 Visual\nFormat profile : Advanced Simple@L5\nFormat settings, BVOP : 2\nFormat settings, QPel : No\nFormat settings, GMC : No warppoints\nFormat settings, Matrix : Default (H.263)\nMuxing mode : Packed bitstream\nCodec ID : XVID\nCodec ID/Hint : XviD\nDuration : 1h 31mn\nBit rate : 1 860 Kbps\nWidth : 720 pixels\nHeight : 304 pixels\nDisplay aspect ratio : 2.35:1\nFrame rate : 23.976 fps\nColor space : YUV\nChroma subsampling : 4:2:0\nBit depth : 8 bits\nScan type : Progressive\nCompression mode : Lossy\nBits/(Pixel*Frame) : 0.354\nStream size : 1.18 GiB (80%)\nWriting library : XviD 63\n\nAudio\nID : 1\nFormat : AC-3\nFormat/Info : Audio Coding 3\nMode extension : CM (complete main)\nCodec ID : 2000\nDuration : 1h 31mn\nBit rate mode : Constant\nBit rate : 448 Kbps\nChannel(s) : 6 channels\nChannel positions : Front: L C R, Side: L R, LFE\nSampling rate : 48.0 KHz\nBit depth : 16 bits\nCompression mode : Lossy\nStream size : 292 MiB (19%)\nAlignment : Split accross interleaves\nInterleave, duration : 42 ms (1.00 video frame)\nInterleave, preload duration : 500 ms\n\n\n\n &lt;a href=&quot;\nhttp://www.imdb.com/title/tt1452628/&quot; rel=&quot;nofollow&quot; target=&quot;_NEW&quot;&gt;\nhttp://www.imdb.com/title/tt1452628/&lt;/a&gt;\n\n\n\n\n\n\n\nStoryline\n\nWhen a massive power outage plunges the city of Detroit into total darkness, a disparate group of individuals find themselves alone. The entire city's population has vanished into thin air, leaving behind heaps of empty clothing, abandoned cars and lengthening shadows. Soon the daylight begins to disappear completely, and as the survivors gather in an abandoned tavern, they realize the darkness is out to get them, and only their rapidly diminishing light sources can keep them safe.\n\n\n\n\n\n\n\n\n\n\n\n\n\n\n\nVanishing On 7th Street LIMITED READNFO 720p BluRay x264-DiVERSiFY.....Thanks\n\n\nGreetz to Imagine ,Flawl3ss,DiLLoN,BDK,NOiR,TOXiCiNK,THC,Ez,Rx,Boobyblue,TaRiQ786,LKRG","torrent":{"xt":"urn:btih:5df33074d2790a4cb41bcde63ea8f3a3b1c8f7ae","amp;dn":"Vanishing+On+7th+Street+XViD+AC3+BRRip+-+DTRG+-+SAFCuk009","amp;tr":["udp%3A%2F%2Ftracker.openbittorrent.com%3A80","udp%3A%2F%2Fopen.demonii.com%3A1337","udp%3A%2F%2Ftracker.coppersurfer.tk%3A6969","udp%3A%2F%2Fexodus.desync.com%3A6969"],"infoHash":"5df33074d2790a4cb41bcde63ea8f3a3b1c8f7ae","infoHashBuffer":{"type":"Buffer","data":[93,243,48,116,210,121,10,76,180,27,205,230,62,168,243,163,177,200,247,174]},"announce":[],"urlList":[]}}